<?xml version="1.0" standalone="no"?>
<!DOCTYPE svg PUBLIC "-//W3C//DTD SVG 20010904//EN"
 "http://www.w3.org/TR/2001/REC-SVG-20010904/DTD/svg10.dtd">
<svg version="1.0" xmlns="http://www.w3.org/2000/svg"
 width="150.000000pt" height="150.000000pt" viewBox="0 0 150.000000 150.000000"
 preserveAspectRatio="xMidYMid meet">
<metadata>
Created by potrace 1.11, written by Peter Selinger 2001-2013
</metadata>
<g transform="translate(0.000000,150.000000) scale(0.100000,-0.100000)"
fill="#000000" stroke="none">
<path d="M0 750 l0 -750 750 0 750 0 0 750 0 750 -750 0 -750 0 0 -750z m905
486 c205 -55 345 -235 345 -446 0 -300 -285 -520 -574 -445 -32 8 -67 20 -78
26 -18 10 -19 13 -5 26 13 13 20 13 63 -2 294 -101 597 153 546 459 -23 141
-107 251 -239 314 -72 34 -84 36 -168 36 -58 0 -106 -6 -135 -17 -34 -12 -46
-13 -52 -4 -14 21 -3 31 53 49 66 20 176 23 244 4z m27 -135 c70 -34 133 -94
165 -159 25 -50 28 -68 28 -152 0 -89 -2 -99 -34 -158 -39 -72 -79 -111 -153
-148 -69 -35 -181 -42 -253 -16 l-50 18 -115 -112 c-66 -64 -127 -115 -143
-119 -76 -19 -141 46 -122 122 4 16 55 77 119 143 l112 115 -18 50 c-14 37
-17 69 -14 126 8 146 88 251 234 306 56 20 185 12 244 -16z m-517 -100 c3 -5
-5 -33 -17 -63 -29 -71 -31 -211 -4 -281 17 -45 17 -50 2 -65 -14 -14 -17 -13
-31 21 -26 63 -38 139 -32 212 9 113 56 216 82 176z"/>
<path d="M708 1077 c-217 -62 -288 -337 -128 -497 61 -61 119 -85 210 -85 91
0 149 24 210 85 61 61 84 119 84 210 1 88 -25 151 -84 210 -73 73 -192 105
-292 77z m2 -127 c0 -16 -7 -20 -30 -20 -27 0 -30 -3 -30 -30 0 -23 -4 -30
-20 -30 -17 0 -20 7 -20 50 l0 50 50 0 c43 0 50 -3 50 -20z m260 -30 c0 -43
-3 -50 -20 -50 -16 0 -20 7 -20 30 0 27 -3 30 -30 30 -23 0 -30 4 -30 20 0 17
7 20 50 20 l50 0 0 -50z m-220 -33 c0 -2 -13 -16 -30 -32 l-30 -29 0 32 c0 29
3 32 30 32 17 0 30 -1 30 -3z m140 -29 l0 -32 -30 29 c-16 16 -30 30 -30 32 0
2 14 3 30 3 27 0 30 -3 30 -32z m-165 -138 l29 -30 -32 0 c-29 0 -32 3 -32 30
0 17 1 30 3 30 2 0 16 -13 32 -30z m165 0 c0 -27 -3 -30 -32 -30 l-32 0 29 30
c16 17 30 30 32 30 2 0 3 -13 3 -30z m-240 -40 c0 -27 3 -30 30 -30 23 0 30
-4 30 -20 0 -17 -7 -20 -50 -20 l-50 0 0 50 c0 43 3 50 20 50 16 0 20 -7 20
-30z m320 -20 l0 -50 -50 0 c-43 0 -50 3 -50 20 0 16 7 20 30 20 27 0 30 3 30
30 0 23 4 30 20 30 17 0 20 -7 20 -50z"/>
<path d="M397 481 c-63 -64 -107 -116 -107 -128 0 -30 44 -67 72 -60 13 4 70
53 127 110 l103 105 -41 41 c-22 22 -42 41 -44 41 -2 0 -51 -49 -110 -109z"/>
</g>
</svg>
